<svg width="37" height="37" viewBox="0 0 37 37" fill="none" xmlns="http://www.w3.org/2000/svg">
<g clip-path="url(#clip0_113_269)">
<path d="M37 18.5C37 22.159 35.915 25.7357 33.8822 28.778C31.8494 31.8204 28.9601 34.1916 25.5797 35.5918C22.1992 36.992 18.4795 37.3584 14.8908 36.6445C11.3022 35.9307 8.0058 34.1687 5.41853 31.5815C2.83126 28.9942 1.06931 25.6978 0.355481 22.1092C-0.358346 18.5205 0.00801578 14.8008 1.40824 11.4204C2.80846 8.03992 5.17965 5.15062 8.22196 3.11781C11.2643 1.08501 14.8411 7.31662e-07 18.5 7.31662e-07C20.9297 -0.000682658 23.3356 0.477368 25.5805 1.40684C27.8253 2.33631 29.865 3.69898 31.583 5.417C33.301 7.13502 34.6637 9.17472 35.5932 11.4195C36.5226 13.6644 37.0007 16.0704 37 18.5Z" fill="url(#paint0_linear_113_269)"/>
<path d="M15.1081 26.9786C14.507 26.9786 14.6148 26.7476 14.3989 26.1769L12.6416 20.3808L23.5566 13.5667L24.8361 13.9059L23.7724 16.8037L15.1081 26.9786Z" fill="#C8DAEA"/>
<path d="M15.1084 26.9789C15.2873 26.9754 15.4631 26.932 15.6231 26.852C15.7831 26.772 15.9233 26.6574 16.0335 26.5164C16.4344 26.1311 21.5833 21.1208 21.5833 21.1208L18.4231 20.3499L15.494 22.1997L15.1084 26.8248V26.9789Z" fill="#A9C9DD"/>
<path d="M15.4168 22.2616L22.877 27.7654C23.7248 28.2279 24.3415 27.9965 24.5574 26.9792L27.5953 12.6726C27.9037 11.4239 27.1175 10.8689 26.3002 11.2389L8.47934 18.1147C7.26149 18.6081 7.27672 19.2865 8.26349 19.5792L12.8421 21.0129L23.4343 14.3374C23.9276 14.0291 24.3902 14.1988 24.0202 14.5377L15.4168 22.2616Z" fill="url(#paint1_linear_113_269)"/>
</g>
<defs>
<linearGradient id="paint0_linear_113_269" x1="-105.339" y1="82.473" x2="-106.893" y2="78.847" gradientUnits="userSpaceOnUse">
<stop stop-color="#37AEE2"/>
<stop offset="1" stop-color="#1E96C8"/>
</linearGradient>
<linearGradient id="paint1_linear_113_269" x1="19.877" y1="18.2271" x2="22.7789" y2="11.6466" gradientUnits="userSpaceOnUse">
<stop stop-color="#EFF7FC"/>
<stop offset="1" stop-color="white"/>
</linearGradient>
<clipPath id="clip0_113_269">
<rect width="37" height="37" fill="white"/>
</clipPath>
</defs>
</svg>
