<svg width="31" height="31" viewBox="0 0 31 31" fill="none" xmlns="http://www.w3.org/2000/svg">
<g clip-path="url(#clip0_113_132)">
<path d="M15.5039 0H15.4961C6.94983 0 2.03378e-05 6.95175 2.03378e-05 15.5C-0.00528667 18.7647 1.02815 21.9464 2.95083 24.5849L1.01915 30.3432L6.97696 28.4386C9.50418 30.1153 12.4711 31.0065 15.5039 31C24.0502 31 31 24.0463 31 15.5C31 6.95369 24.0502 0 15.5039 0Z" fill="#4CAF50"/>
<path d="M24.5231 21.888C24.1491 22.9439 22.665 23.8197 21.4812 24.0754C20.6713 24.2479 19.6134 24.3854 16.0523 22.909C11.4973 21.0219 8.56388 16.3932 8.33525 16.0929C8.11632 15.7926 6.49463 13.642 6.49463 11.4177C6.49463 9.19348 7.62419 8.11042 8.0795 7.64542C8.45344 7.26373 9.0715 7.08936 9.66438 7.08936C9.85619 7.08936 10.0286 7.09904 10.1836 7.10679C10.6389 7.12617 10.8676 7.15329 11.1679 7.87211C11.5418 8.77304 12.4524 10.9973 12.5609 11.2259C12.6714 11.4545 12.7818 11.7645 12.6268 12.0649C12.4815 12.3749 12.3536 12.5124 12.125 12.7759C11.8964 13.0394 11.6794 13.2409 11.4508 13.5238C11.2415 13.7699 11.0051 14.0334 11.2686 14.4887C11.5321 14.9343 12.4428 16.4204 13.7835 17.6139C15.5137 19.1542 16.9164 19.6463 17.4183 19.8555C17.7922 20.0105 18.2378 19.9737 18.511 19.6831C18.8578 19.3092 19.286 18.6892 19.7219 18.0789C20.0319 17.641 20.4233 17.5867 20.8341 17.7417C21.2526 17.887 23.4671 18.9817 23.9224 19.2084C24.3778 19.437 24.6781 19.5455 24.7885 19.7374C24.897 19.9292 24.897 20.8301 24.5231 21.888Z" fill="#FAFAFA"/>
</g>
<defs>
<clipPath id="clip0_113_132">
<rect width="31" height="31" fill="white"/>
</clipPath>
</defs>
</svg>
